<svg width="805" height="30" viewBox="0 0 805 30" fill="none" xmlns="http://www.w3.org/2000/svg">
<path d="M466.116 23.8826H471.797V16.8238H475.622C476.781 16.8238 477.245 17.7649 477.245 18.4708V21.5296C477.245 22.7061 477.477 23.5296 478.057 23.8826H484.317V23.2943C483.853 22.7061 483.39 22.0002 483.39 20.3532V17.6473C483.39 16.0002 482.346 14.5885 479.68 14.9414L481.303 16.4708V13.2943L480.143 14.8238C481.998 15.1767 483.042 13.412 483.042 11.7649V9.41199C483.042 8.23552 483.274 8.11788 483.621 7.64729V6.94141H477.825C477.245 7.1767 477.129 7.88258 477.129 8.70611V11.6473C477.129 12.3532 476.55 13.2943 475.506 13.2943H471.681V6.94141H466V23.8826H466.116Z" fill="black"/>
<path d="M497.069 21.2943V22.3532H498.229V21.412H497.069V21.2943ZM484.433 16.4708C484.433 21.0591 487.215 24.3532 491.853 24.3532C494.171 24.3532 495.91 23.7649 497.533 22.2355V23.8826H503.562V6.94141H497.533V15.8826C497.533 17.7649 497.069 19.0591 496.142 19.7649C495.562 20.2355 494.751 20.5885 493.823 20.5885C492.2 20.5885 491.273 19.7649 490.809 18.4708C490.577 17.8826 490.577 17.1767 490.577 16.0002V6.94141H484.433V16.4708V16.4708Z" fill="black"/>
<path d="M506.692 1.29492H501.012V5.76551H506.692V1.29492Z" fill="black"/>
<path d="M515.156 1.29492H509.475V5.76551H515.156V1.29492Z" fill="black"/>
<path d="M510.865 6.94141H505.185V23.8826H510.865V6.94141Z" fill="black"/>
<path d="M518.285 13.4105V10.587H523.386C524.313 10.587 525.009 11.1752 525.009 11.9987C525.009 12.8223 524.429 13.4105 523.386 13.4105H518.285V13.4105ZM518.285 20.1164V17.2929H523.386C524.313 17.2929 525.009 17.8811 525.009 18.7046C525.009 19.5281 524.429 20.1164 523.386 20.1164H518.285ZM512.604 23.8811H524.893C528.023 23.8811 530.574 22.234 530.574 19.1752C530.574 16.4693 528.371 14.9399 525.705 15.1752L526.98 16.7046V13.5281L525.821 15.1752C528.139 15.0576 529.878 13.2929 529.878 11.0576C529.878 9.52815 529.183 8.35168 528.023 7.64579C527.675 7.4105 527.212 7.29285 526.748 7.05756C526.052 6.93991 525.357 6.82227 524.545 6.82227H512.604V23.8811Z" fill="black"/>
<path d="M544.601 17.1785C544.369 19.0609 543.441 20.5903 541.007 20.5903C538.456 20.5903 537.413 18.8256 537.413 16.2374V14.5903C537.413 12.0021 538.456 10.2374 541.007 10.2374C543.21 10.2374 544.021 11.4138 544.485 13.1785H550.165C549.586 9.29619 547.267 6.47266 540.891 6.47266C533.819 6.47266 531.385 10.1197 531.385 14.8256V16.0021C531.385 20.8256 534.399 24.2374 540.891 24.2374C547.035 24.2374 549.818 21.2962 550.397 17.0609H544.601V17.1785Z" fill="black"/>
<path d="M556.773 20.0002H561.063C562.338 20.0002 562.918 19.412 562.918 18.4708C562.918 17.5296 562.338 16.9414 561.063 16.9414H556.773V20.0002ZM551.093 23.8826V6.94141H556.773V13.412H563.381C564.541 13.412 565.236 13.5296 565.932 13.6473C568.019 14.2355 569.178 15.8826 569.178 18.3532C569.178 21.2944 567.555 23.0591 565.12 23.6473C563.961 24.0002 562.686 23.8826 561.179 23.8826H551.093Z" fill="black"/>
<path d="M570.221 23.8826H575.901V16.8238H579.727C580.887 16.8238 581.35 17.7649 581.35 18.4708V21.5296C581.35 22.7061 581.582 23.5296 582.162 23.8826H588.422V23.2943C587.958 22.7061 587.495 22.0002 587.495 20.3532V17.6473C587.495 16.0002 586.451 14.5885 583.785 14.9414L585.408 16.4708V13.2943L584.248 14.8238C586.103 15.1767 587.147 13.412 587.147 11.7649V9.41199C587.147 8.23552 587.379 8.11788 587.726 7.64729V6.94141H581.93C581.35 7.1767 581.234 7.88258 581.234 8.70611V11.6473C581.234 12.3532 580.655 13.2943 579.611 13.2943H575.786V6.94141H570.105V23.8826H570.221Z" fill="black"/>
<path d="M589.698 12.5898H595.262C595.494 11.2957 596.422 10.2369 598.277 10.2369H599.088C600.479 10.2369 601.523 10.9427 601.523 12.1192C601.523 13.0604 600.943 13.4133 599.436 13.531L595.146 13.8839C591.321 14.1192 588.886 15.4133 588.886 19.178C588.886 22.7074 591.784 24.4721 595.031 24.4721C597.465 24.4721 600.131 23.4133 601.87 21.2957V21.8839C601.87 22.9427 602.102 23.6486 602.682 24.0016H608.478V23.2957C607.203 22.8251 607.319 22.0016 607.319 20.7074V12.9427C607.319 9.29567 604.769 6.58979 598.972 6.58979C592.828 6.47215 590.161 9.06038 589.698 12.5898ZM594.799 18.4721C594.799 17.6486 595.378 17.178 596.769 16.9427L598.856 16.7074C600.016 16.5898 600.943 16.2369 601.523 15.531V16.4721C601.523 18.2369 599.204 20.1192 596.654 20.1192C595.378 20.1192 594.799 19.531 594.799 18.4721Z" fill="black"/>
<path d="M629.463 17.1785C629.231 19.0609 628.303 20.5903 625.869 20.5903C623.318 20.5903 622.275 18.8256 622.275 16.2374V14.5903C622.275 12.0021 623.318 10.2374 625.869 10.2374C628.071 10.2374 628.883 11.4138 629.347 13.1785H635.027C634.448 9.29619 632.129 6.47266 625.753 6.47266C618.681 6.47266 616.247 10.1197 616.247 14.8256V16.0021C616.247 20.8256 619.261 24.2374 625.753 24.2374C631.897 24.2374 634.679 21.2962 635.259 17.0609H629.463V17.1785Z" fill="black"/>
<path d="M646.967 23.8826H652.648V6.94141H646.967V23.8826ZM649.75 10.4708V6.94141H643.258H636.649V12.4708C636.649 16.7061 636.07 20.5885 633.867 23.2943V23.8826H640.127C641.171 22.5885 641.75 21.1767 641.982 19.412C642.214 17.7649 642.214 15.7649 642.214 14.1179V10.4708H649.75Z" fill="black"/>
<path d="M659.488 16.0021C659.488 18.708 660.763 20.5903 663.198 20.5903C665.632 20.5903 666.908 18.708 666.908 16.0021V14.8256C666.908 12.1197 665.632 10.2374 663.198 10.2374C660.763 10.2374 659.488 12.1197 659.488 14.8256V16.0021ZM663.314 24.2374C657.054 24.2374 653.808 20.708 653.808 15.6491V15.0609C653.808 10.2374 656.59 6.47266 663.314 6.47266C670.154 6.47266 672.82 10.2374 672.82 15.0609V15.6491C672.82 20.708 669.574 24.2374 663.314 24.2374Z" fill="black"/>
<path d="M679.543 13.4105V10.587H684.644C685.572 10.587 686.267 11.1752 686.267 11.9987C686.267 12.8223 685.688 13.4105 684.644 13.4105H679.543V13.4105ZM679.543 20.1164V17.2929H684.644C685.572 17.2929 686.267 17.8811 686.267 18.7046C686.267 19.5281 685.688 20.1164 684.644 20.1164H679.543ZM673.863 23.8811H686.151C689.282 23.8811 691.832 22.234 691.832 19.1752C691.832 16.4693 689.629 14.9399 686.963 15.1752L688.238 16.7046V13.5281L687.079 15.1752C689.397 15.0576 691.136 13.2929 691.136 11.0576C691.136 9.52815 690.441 8.35168 689.282 7.64579C688.934 7.4105 688.47 7.29285 688.006 7.05756C687.311 6.93991 686.615 6.82227 685.804 6.82227H673.863V23.8811Z" fill="black"/>
<path d="M698.208 16.0021C698.208 18.708 699.484 20.5903 701.918 20.5903C704.353 20.5903 705.628 18.708 705.628 16.0021V14.8256C705.628 12.1197 704.353 10.2374 701.918 10.2374C699.484 10.2374 698.208 12.1197 698.208 14.8256V16.0021ZM702.034 24.2374C695.774 24.2374 692.528 20.708 692.528 15.6491V15.0609C692.528 10.2374 695.31 6.47266 702.034 6.47266C708.874 6.47266 711.54 10.2374 711.54 15.0609V15.6491C711.54 20.708 708.294 24.2374 702.034 24.2374Z" fill="black"/>
<path d="M723.366 23.8826H729.046V6.94141H723.366V23.8826ZM726.148 10.4708V6.94141H719.656H713.048V12.4708C713.048 16.7061 712.468 20.5885 710.266 23.2943V23.8826H716.526C717.569 22.5885 718.149 21.1767 718.381 19.412C718.613 17.7649 718.613 15.7649 718.613 14.1179V10.4708H726.148Z" fill="black"/>
<path d="M743.074 21.2943V22.3532H744.233V21.412H743.074V21.2943ZM730.438 16.4708C730.438 21.0591 733.22 24.3532 737.857 24.3532C740.176 24.3532 741.915 23.7649 743.538 22.2355V23.8826H749.566V6.94141H743.538V15.8826C743.538 17.7649 743.074 19.0591 742.146 19.7649C741.567 20.2355 740.755 20.5885 739.828 20.5885C738.205 20.5885 737.277 19.7649 736.814 18.4708C736.582 17.8826 736.582 17.1767 736.582 16.0002V6.94141H730.438V16.4708Z" fill="black"/>
<path d="M748.871 6.94141V10.4708H766.492V6.94141H748.871ZM754.783 6.94141V23.8826H760.811V6.94141H754.783Z" fill="black"/>
<path d="M771.129 13.2943V16.9414H777.622V13.2943H771.129ZM765.913 6.94141V23.8826H771.593V6.94141H765.913ZM777.158 6.94141V23.8826H782.838V6.94141H777.158Z" fill="black"/>
<path d="M796.17 13.6482V10.5894H791.764C790.489 10.5894 789.909 11.1776 789.909 12.1188C789.909 13.06 790.489 13.6482 791.764 13.6482H796.17V13.6482ZM783.533 23.8835V23.1776C783.997 22.707 784.345 22.5894 784.345 21.1776V18.3541C784.345 16.8247 784.924 15.8835 786.316 15.4129V15.2953C784.924 14.5894 783.997 13.4129 783.997 11.4129C783.997 9.05997 785.156 7.53056 787.243 6.94233C787.823 6.82468 788.634 6.70703 789.793 6.70703H801.85V23.6482H796.17V17.5306H791.996C790.837 17.5306 790.373 18.4717 790.373 19.1776V21.4129C790.373 22.5894 790.141 23.4129 789.562 23.7659H783.533V23.8835Z" fill="black"/>
<path d="M6.72341 11.7655V12.7067H7.88272V11.7655H6.72341ZM13.3314 23.7655H19.5917L12.404 12.8243L7.88272 15.2949L13.3314 23.7655ZM12.1721 6.94198L3.12958 15.6479L4.98446 20.4714L19.1279 6.94198H12.1721ZM1.39062 23.8832H7.0712V1.29492H1.39062V23.8832Z" fill="black"/>
<path d="M26.5483 17.5296V18.4708H27.7076V17.5296H26.5483ZM16.2305 6.94141L23.8819 24.3532C22.7226 25.412 22.1429 25.412 19.7084 25.412V29.5296H23.5341C27.012 29.5296 28.2872 27.8826 29.2146 25.7649L37.5616 7.05905H31.0695L26.3164 19.6473L27.7076 19.8826L22.6066 6.94141H16.2305Z" fill="black"/>
<path d="M36.5176 23.8832H42.1982V6.94198H36.5176V23.8832ZM36.5176 1.29492V5.76551H42.1982V1.29492H36.5176Z" fill="black"/>
<path d="M51.3574 17.5296V18.4708H52.5167V17.5296H51.3574ZM41.2715 6.94141L48.691 23.8826H54.9512L62.4867 6.94141H55.9946L51.3574 19.1767H52.5167L47.5317 6.94141H41.2715Z" fill="black"/>
<path d="M75.1222 23.883H79.9912V20.1183H77.5567C76.8611 20.1183 76.3974 19.5301 76.3974 18.8242V2.82422H70.4849V19.1772C70.4849 22.1183 72.4558 23.883 75.1222 23.883ZM66.8911 6.94187V10.4713H79.9912V6.94187H66.8911Z" fill="black"/>
<path d="M88.4545 17.5296V18.4708H89.6138V17.5296H88.4545ZM78.1367 6.94141L85.7881 24.3532C84.6288 25.412 84.0492 25.412 81.6146 25.412V29.5296H85.4403C88.9182 29.5296 90.1935 27.8826 91.1209 25.7649L99.4679 7.05905H92.9758L88.2226 19.6473L89.6138 19.8826L84.5129 6.94141H78.1367Z" fill="black"/>
<path d="M103.526 20.9432V21.8844H104.685V20.9432H103.526ZM103.526 8.70795V9.64913H104.685V8.70795H103.526ZM108.395 20.1197C105.96 20.1197 104.105 18.2374 104.105 15.5315V14.708C104.105 12.0021 105.96 10.1197 108.395 10.1197C110.829 10.1197 112.105 12.0021 112.105 14.708V15.5315C112.105 18.355 110.829 20.1197 108.395 20.1197ZM98.4248 29.5315H104.105V6.94324H98.4248V29.5315ZM110.25 24.2374C115.582 24.2374 118.481 20.708 118.481 15.6491V15.0609C118.481 10.2374 116.046 6.47266 110.25 6.47266C104.453 6.47266 102.135 10.2374 102.135 15.0609V15.6491C102.135 20.708 104.801 24.2374 110.25 24.2374Z" fill="black"/>
<path d="M125.669 13.5319C126.017 11.179 127.06 10.2378 129.263 10.2378C131.349 10.2378 132.509 11.0614 132.856 13.5319H125.669ZM119.524 16.0025C119.524 20.8261 122.539 24.2378 129.031 24.2378C134.595 24.2378 137.262 21.8849 138.189 18.5908H132.509C132.161 19.5319 131.117 20.4731 129.263 20.4731C126.944 20.4731 125.901 19.0614 125.553 17.0614H138.421C138.421 15.0614 138.421 13.4143 138.073 12.0025C137.146 8.35547 134.479 6.35547 129.031 6.35547C121.959 6.35547 119.524 10.0025 119.524 14.7084V16.0025Z" fill="black"/>
<path d="M146.304 11.2949H149.898V23.8832H155.578V11.2949H159.172V7.76551H155.578V6.35375C155.578 5.64786 156.158 5.17728 156.737 5.17728H159.056V1.29492H154.883C151.868 1.29492 149.898 3.76551 149.898 6.70669V7.76551H146.304V11.2949V11.2949Z" fill="black"/>
<path d="M164.737 16.0021C164.737 18.708 166.012 20.5903 168.447 20.5903C170.881 20.5903 172.156 18.708 172.156 16.0021V14.8256C172.156 12.1197 170.881 10.2374 168.447 10.2374C166.012 10.2374 164.737 12.1197 164.737 14.8256V16.0021ZM168.562 24.2374C162.302 24.2374 159.056 20.708 159.056 15.6491V15.0609C159.056 10.2374 161.838 6.47266 168.562 6.47266C175.402 6.47266 178.069 10.2374 178.069 15.0609V15.6491C178.069 20.708 174.823 24.2374 168.562 24.2374Z" fill="black"/>
<path d="M191.748 21.2943V22.3532H192.907V21.412H191.748V21.2943ZM179.112 16.4708C179.112 21.0591 181.894 24.3532 186.531 24.3532C188.85 24.3532 190.589 23.7649 192.212 22.2355V23.8826H198.24V6.94141H192.212V15.8826C192.212 17.7649 191.748 19.0591 190.821 19.7649C190.241 20.2355 189.43 20.5885 188.502 20.5885C186.879 20.5885 185.952 19.7649 185.488 18.4708C185.256 17.8826 185.256 17.1767 185.256 16.0002V6.94141H179.112V16.4708V16.4708Z" fill="black"/>
<path d="M206.472 9.53148V8.47266H205.313V9.41383H206.472V9.53148ZM219.108 14.355C219.108 9.76677 216.326 6.47266 211.689 6.47266C209.37 6.47266 207.631 7.06089 206.008 8.5903V6.94324H199.98V23.8844H206.008V14.9432C206.008 13.0609 206.472 11.7668 207.4 11.0609C207.979 10.5903 208.791 10.2374 209.718 10.2374C211.341 10.2374 212.269 11.0609 212.732 12.355C212.964 12.9432 212.964 13.6491 212.964 14.8256V23.7668H219.108V14.355V14.355Z" fill="black"/>
<path d="M235.223 9.88316V8.82433H234.063V9.76551H235.223V9.88316ZM235.223 22.0008V21.0596H234.063V22.0008H235.223ZM230.353 10.7067C232.788 10.7067 234.643 12.589 234.643 15.2949V16.1185C234.643 18.8243 232.788 20.7067 230.353 20.7067C227.919 20.7067 226.644 18.8243 226.644 16.1185V15.2949C226.644 12.4714 227.803 10.7067 230.353 10.7067ZM240.323 1.29492H234.643V23.8832H240.323V1.29492ZM228.499 6.47139C223.166 6.47139 220.268 10.0008 220.268 15.0596V15.6479C220.268 20.4714 222.702 24.2361 228.499 24.2361C234.295 24.2361 236.614 20.4714 236.614 15.6479V15.0596C236.614 10.1185 233.947 6.47139 228.499 6.47139Z" fill="black"/>
<path d="M241.946 23.8826H247.627V17.0591C247.627 16.4708 247.627 15.7649 247.859 15.0591C248.091 14.2355 248.438 13.6473 249.018 13.0591C249.83 12.2355 250.873 11.7649 252.612 11.7649C253.539 11.7649 254.467 12.0002 255.162 12.2355L255.278 12.1179V6.94141H253.771C251.221 6.94141 249.25 8.35317 247.859 10.3532H247.743V6.94141H242.062V23.8826H241.946Z" fill="black"/>
<path d="M263.973 17.5296V18.4708H265.132V17.5296H263.973ZM253.655 6.94141L261.306 24.3532C260.147 25.412 259.567 25.412 257.133 25.412V29.5296H260.958C264.436 29.5296 265.712 27.8826 266.639 25.7649L274.986 7.05905H268.494L263.741 19.6473L265.132 19.8826L260.031 7.1767H253.655V6.94141Z" fill="black"/>
<path d="M578.221 13.4102H576.482V14.7043H578.221V13.4102Z" fill="black"/>
</svg>
