<svg width="190" height="19" viewBox="0 0 190 19" fill="none" xmlns="http://www.w3.org/2000/svg">
<path d="M4.02118 8.19362V8.72518H4.67796V8.19362H4.02118ZM7.76482 14.971H11.3114L7.23939 8.79162L4.67796 10.187L7.76482 14.971ZM7.10804 5.46938L1.98517 10.3863L3.03601 13.1105L11.0487 5.46938H7.10804ZM1 15.0374H4.21821V2.28003H1V15.0374Z" fill="black"/>
<path d="M15.2526 11.4491V11.9807H15.9093V11.4491H15.2526ZM9.40723 5.46912L13.742 15.3029C13.0852 15.9009 12.7568 15.9009 11.3776 15.9009V18.2265H13.5449C15.5153 18.2265 16.2377 17.2963 16.7631 16.1003L21.4919 5.53556H17.814L15.1212 12.6452L15.9093 12.778L13.0195 5.46912H9.40723Z" fill="black"/>
<path d="M20.9009 15.0374H24.1191V5.46938H20.9009V15.0374ZM20.9009 2.28003V4.80493H24.1191V2.28003H20.9009Z" fill="black"/>
<path d="M29.3077 11.4491V11.9807H29.9645V11.4491H29.3077ZM23.5938 5.46912L27.7971 15.0372H31.3437L35.6128 5.46912H31.9348L29.3077 12.3794H29.9645L27.1404 5.46912H23.5938Z" fill="black"/>
<path d="M42.7706 15.0358H45.529V12.9096H44.1498C43.7557 12.9096 43.493 12.5774 43.493 12.1787V3.14221H40.1434V12.378C40.1434 14.0392 41.26 15.0358 42.7706 15.0358ZM38.1074 5.46778V7.46112H45.529V5.46778H38.1074Z" fill="black"/>
<path d="M50.3238 11.4491V11.9807H50.9806V11.4491H50.3238ZM44.4785 5.46912L48.8133 15.3029C48.1565 15.9009 47.8281 15.9009 46.4489 15.9009V18.2265H48.6162C50.5866 18.2265 51.309 17.2963 51.8344 16.1003L56.5632 5.53556H52.8853L50.1925 12.6452L50.9806 12.778L48.0908 5.46912H44.4785Z" fill="black"/>
<path d="M58.862 13.3753V13.9069H59.5188V13.3753H58.862ZM58.862 6.46509V6.99665H59.5188V6.46509H58.862ZM61.6205 12.9102C60.2412 12.9102 59.1904 11.8471 59.1904 10.3189V9.85377C59.1904 8.32554 60.2412 7.26243 61.6205 7.26243C62.9997 7.26243 63.7221 8.32554 63.7221 9.85377V10.3189C63.7221 11.9136 62.9997 12.9102 61.6205 12.9102ZM55.9722 18.2258H59.1904V5.46842H55.9722V18.2258ZM62.6713 15.2358C65.6925 15.2358 67.3344 13.2425 67.3344 10.3853V10.0531C67.3344 7.32887 65.9552 5.20264 62.6713 5.20264C59.3874 5.20264 58.0739 7.32887 58.0739 10.0531V10.3853C58.0739 13.2425 59.5844 15.2358 62.6713 15.2358Z" fill="black"/>
<path d="M71.4062 9.18961C71.6033 7.86071 72.1944 7.32915 73.4423 7.32915C74.6245 7.32915 75.2812 7.79427 75.4783 9.18961H71.4062ZM67.9253 10.585C67.9253 13.3092 69.6329 15.2361 73.3109 15.2361C76.4634 15.2361 77.974 13.9072 78.4995 12.0467H75.2812C75.0842 12.5783 74.4931 13.1099 73.4423 13.1099C72.1287 13.1099 71.5376 12.3125 71.3406 11.183H78.6308C78.6308 10.0534 78.6308 9.12316 78.4338 8.32583C77.9084 6.26604 76.3978 5.13647 73.3109 5.13647C69.3045 5.13647 67.9253 7.19626 67.9253 9.85406V10.585Z" fill="black"/>
<path d="M83.0977 7.92784H85.1337V15.0374H88.3519V7.92784H90.3879V5.93449H88.3519V5.13716C88.3519 4.73849 88.6803 4.47271 89.0087 4.47271H90.3223V2.28003H87.9578C86.2502 2.28003 85.1337 3.67537 85.1337 5.33649V5.93449H83.0977V7.92784V7.92784Z" fill="black"/>
<path d="M93.5405 10.5847C93.5405 12.1129 94.2629 13.176 95.6422 13.176C97.0214 13.176 97.7439 12.1129 97.7439 10.5847V9.92022C97.7439 8.39199 97.0214 7.32887 95.6422 7.32887C94.2629 7.32887 93.5405 8.39199 93.5405 9.92022V10.5847ZM95.7078 15.2358C92.1612 15.2358 90.3223 13.2425 90.3223 10.3853V10.0531C90.3223 7.32887 91.8985 5.20264 95.7078 5.20264C99.5828 5.20264 101.093 7.32887 101.093 10.0531V10.3853C101.093 13.2425 99.2544 15.2358 95.7078 15.2358Z" fill="black"/>
<path d="M108.844 13.5754V14.1734H109.501V13.6418H108.844V13.5754ZM101.685 10.8511C101.685 13.4425 103.261 15.3029 105.888 15.3029C107.202 15.3029 108.187 14.9707 109.107 14.1069V15.0372H112.522V5.46912H109.107V10.5189C109.107 11.582 108.844 12.3129 108.319 12.7116C107.99 12.9774 107.53 13.1767 107.005 13.1767C106.085 13.1767 105.56 12.7116 105.297 11.9807C105.166 11.6485 105.166 11.2498 105.166 10.5854V5.46912H101.685V10.8511V10.8511Z" fill="black"/>
<path d="M117.184 6.9302V6.3322H116.528V6.86376H117.184V6.9302ZM124.343 9.65444C124.343 7.06309 122.767 5.20264 120.14 5.20264C118.826 5.20264 117.841 5.53486 116.922 6.39864V5.46842H113.506V15.0365H116.922V9.98666C116.922 8.92355 117.184 8.19265 117.71 7.79398C118.038 7.5282 118.498 7.32887 119.023 7.32887C119.943 7.32887 120.468 7.79398 120.731 8.52488C120.862 8.8571 120.862 9.25577 120.862 9.92022V14.97H124.343V9.65444V9.65444Z" fill="black"/>
<path d="M133.472 7.1305V6.5325H132.816V7.06405H133.472V7.1305ZM133.472 13.9743V13.4428H132.816V13.9743H133.472ZM130.714 7.59561C132.093 7.59561 133.144 8.65873 133.144 10.187V10.6521C133.144 12.1803 132.093 13.2434 130.714 13.2434C129.335 13.2434 128.612 12.1803 128.612 10.6521V10.187C128.612 8.59228 129.269 7.59561 130.714 7.59561ZM136.362 2.28003H133.144V15.0374H136.362V2.28003ZM129.663 5.2036C126.642 5.2036 125 7.19694 125 10.0541V10.3863C125 13.1105 126.379 15.2368 129.663 15.2368C132.947 15.2368 134.261 13.1105 134.261 10.3863V10.0541C134.261 7.26339 132.75 5.2036 129.663 5.2036Z" fill="black"/>
<path d="M137.282 15.0372H140.5V11.1834C140.5 10.8511 140.5 10.4525 140.632 10.0538C140.763 9.58869 140.96 9.25647 141.289 8.92425C141.748 8.45913 142.339 8.19335 143.325 8.19335C143.85 8.19335 144.375 8.32624 144.769 8.45913L144.835 8.39269V5.46912H143.981C142.536 5.46912 141.42 6.26645 140.632 7.39602H140.566V5.46912H137.348V15.0372H137.282Z" fill="black"/>
<path d="M149.76 11.4491V11.9807H150.417V11.4491H149.76ZM143.915 5.46912L148.25 15.3029C147.593 15.9009 147.265 15.9009 145.885 15.9009V18.2265H148.053C150.023 18.2265 150.746 17.2963 151.271 16.1003L156 5.53556H152.322L149.629 12.6452L150.417 12.778L147.527 5.60201H143.915V5.46912Z" fill="black"/>
</svg>
