<svg width="190" height="19" viewBox="0 0 190 19" fill="none" xmlns="http://www.w3.org/2000/svg">
<path d="M1.06503 15.0171H4.25105V11.058H6.39674C7.04695 11.058 7.30703 11.5859 7.30703 11.9818V13.6974C7.30703 14.3572 7.43708 14.8191 7.76219 15.0171H11.2733V14.6872C11.0132 14.3572 10.7532 13.9613 10.7532 13.0376V11.5199C10.7532 10.5961 10.168 9.80434 8.67248 10.0023L9.58277 10.8601V9.07852L8.93256 9.93631C9.9729 10.1343 10.5581 9.1445 10.5581 8.22072V6.90104C10.5581 6.2412 10.6881 6.17522 10.8832 5.91128V5.51538H7.63214C7.30703 5.64735 7.24203 6.04325 7.24203 6.50514V8.15474C7.24203 8.55064 6.91691 9.07852 6.33172 9.07852H4.18603V5.51538H1V15.0171H1.06503Z" fill="black"/>
<path d="M18.4257 13.5654V14.1593H19.0759V13.6314H18.4257V13.5654ZM11.3384 10.8601C11.3384 13.4335 12.8989 15.281 15.4997 15.281C16.8001 15.281 17.7754 14.9511 18.6857 14.0933V15.0171H22.0668V5.51538H18.6857V10.5302C18.6857 11.5859 18.4257 12.3117 17.9055 12.7076C17.5804 12.9716 17.1253 13.1695 16.6051 13.1695C15.6948 13.1695 15.1746 12.7076 14.9145 11.9818C14.7845 11.6519 14.7845 11.256 14.7845 10.5961V5.51538H11.3384V10.8601V10.8601Z" fill="black"/>
<path d="M23.8223 2.34998H20.6362V4.85737H23.8223V2.34998Z" fill="black"/>
<path d="M28.5718 2.34998H25.3857V4.85737H28.5718V2.34998Z" fill="black"/>
<path d="M26.1626 5.51538H22.9766V15.0171H26.1626V5.51538Z" fill="black"/>
<path d="M30.3247 9.14396V7.56034H33.1856C33.7058 7.56034 34.0959 7.89026 34.0959 8.35215C34.0959 8.81404 33.7708 9.14396 33.1856 9.14396H30.3247V9.14396ZM30.3247 12.905V11.3214H33.1856C33.7058 11.3214 34.0959 11.6513 34.0959 12.1132C34.0959 12.5751 33.7708 12.905 33.1856 12.905H30.3247ZM27.1387 15.0165H34.0309C35.7865 15.0165 37.2169 14.0928 37.2169 12.3772C37.2169 10.8595 35.9815 10.0017 34.4861 10.1337L35.2013 10.9915V9.20994L34.5511 10.1337C35.8515 10.0677 36.8268 9.07797 36.8268 7.82428C36.8268 6.96648 36.4367 6.30664 35.7865 5.91074C35.5914 5.77877 35.3313 5.71279 35.0712 5.58082C34.6811 5.51484 34.291 5.44885 33.8359 5.44885H27.1387V15.0165Z" fill="black"/>
<path d="M45.0857 11.2588C44.9557 12.3146 44.4355 13.1724 43.0701 13.1724C41.6396 13.1724 41.0544 12.1826 41.0544 10.7309V9.80717C41.0544 8.35552 41.6396 7.36576 43.0701 7.36576C44.3055 7.36576 44.7606 8.0256 45.0207 9.01536H48.2068C47.8816 6.83789 46.5812 5.25427 43.0051 5.25427C39.0388 5.25427 37.6733 7.29978 37.6733 9.93914V10.599C37.6733 13.3043 39.3639 15.2179 43.0051 15.2179C46.4512 15.2179 48.0117 13.5683 48.3368 11.1928H45.0857V11.2588Z" fill="black"/>
<path d="M51.9097 12.8396H54.3154C55.0307 12.8396 55.3558 12.5097 55.3558 11.9818C55.3558 11.4539 55.0307 11.124 54.3154 11.124H51.9097V12.8396ZM48.7236 15.0171V5.51538H51.9097V9.1445H55.6159C56.2661 9.1445 56.6562 9.21049 57.0463 9.27647C58.2167 9.60639 58.8669 10.5302 58.8669 11.9158C58.8669 13.5654 57.9566 14.5552 56.5912 14.8851C55.941 15.0831 55.2257 15.0171 54.3805 15.0171H48.7236Z" fill="black"/>
<path d="M59.4542 15.0171H62.6402V11.058H64.7859C65.4361 11.058 65.6962 11.5859 65.6962 11.9818V13.6974C65.6962 14.3572 65.8262 14.8191 66.1513 15.0171H69.6625V14.6872C69.4024 14.3572 69.1423 13.9613 69.1423 13.0376V11.5199C69.1423 10.5961 68.5571 9.80434 67.0617 10.0023L67.9719 10.8601V9.07852L67.3217 9.93631C68.3621 10.1343 68.9473 9.1445 68.9473 8.22072V6.90104C68.9473 6.2412 69.0773 6.17522 69.2724 5.91128V5.51538H66.0213C65.6962 5.64735 65.6312 6.04325 65.6312 6.50514V8.15474C65.6312 8.55064 65.3061 9.07852 64.7209 9.07852H62.5752V5.51538H59.3892V15.0171H59.4542Z" fill="black"/>
<path d="M70.377 8.68558H73.498C73.6281 7.95976 74.1482 7.3659 75.1886 7.3659H75.6437C76.424 7.3659 77.0092 7.76181 77.0092 8.42165C77.0092 8.94952 76.6841 9.14747 75.8388 9.21346L73.433 9.41141C71.2873 9.54338 69.9219 10.2692 69.9219 12.3807C69.9219 14.3602 71.5474 15.35 73.368 15.35C74.7334 15.35 76.2289 14.7561 77.2042 13.5684V13.8983C77.2042 14.4922 77.3343 14.8881 77.6594 15.086H80.9104V14.6901C80.1952 14.4262 80.2602 13.9643 80.2602 13.2385V8.88354C80.2602 6.83803 78.8298 5.3204 75.5787 5.3204C72.1326 5.25442 70.6371 6.70606 70.377 8.68558ZM73.238 11.9848C73.238 11.5229 73.563 11.259 74.3433 11.127L75.5137 10.995C76.1639 10.929 76.6841 10.7311 77.0092 10.3352V10.8631C77.0092 11.8528 75.7087 12.9086 74.2783 12.9086C73.563 12.9086 73.238 12.5786 73.238 11.9848Z" fill="black"/>
<path d="M92.68 11.2588C92.5499 12.3146 92.0298 13.1724 90.6643 13.1724C89.2339 13.1724 88.6487 12.1826 88.6487 10.7309V9.80717C88.6487 8.35552 89.2339 7.36576 90.6643 7.36576C91.8997 7.36576 92.3549 8.0256 92.615 9.01536H95.801C95.4759 6.83789 94.1755 5.25427 90.5993 5.25427C86.633 5.25427 85.2676 7.29978 85.2676 9.93914V10.599C85.2676 13.3043 86.9581 15.2179 90.5993 15.2179C94.0454 15.2179 95.6059 13.5683 95.931 11.1928H92.68V11.2588Z" fill="black"/>
<path d="M102.498 15.0171H105.684V5.51538H102.498V15.0171ZM104.058 7.4949V5.51538H100.417H96.7109V8.61663C96.7109 10.9921 96.3858 13.1695 95.1504 14.6872V15.0171H98.6615C99.2467 14.2913 99.5718 13.4994 99.7019 12.5097C99.8319 11.5859 99.8319 10.4642 99.8319 9.5404V7.4949H104.058Z" fill="black"/>
<path d="M109.521 10.599C109.521 12.1166 110.236 13.1724 111.602 13.1724C112.967 13.1724 113.682 12.1166 113.682 10.599V9.93914C113.682 8.4215 112.967 7.36576 111.602 7.36576C110.236 7.36576 109.521 8.4215 109.521 9.93914V10.599ZM111.667 15.2179C108.156 15.2179 106.335 13.2383 106.335 10.401V10.0711C106.335 7.36576 107.895 5.25427 111.667 5.25427C115.503 5.25427 116.998 7.36576 116.998 10.0711V10.401C116.998 13.2383 115.178 15.2179 111.667 15.2179Z" fill="black"/>
<path d="M120.768 9.14396V7.56034H123.629C124.149 7.56034 124.539 7.89026 124.539 8.35215C124.539 8.81404 124.214 9.14396 123.629 9.14396H120.768V9.14396ZM120.768 12.905V11.3214H123.629C124.149 11.3214 124.539 11.6513 124.539 12.1132C124.539 12.5751 124.214 12.905 123.629 12.905H120.768ZM117.582 15.0165H124.474C126.23 15.0165 127.66 14.0928 127.66 12.3772C127.66 10.8595 126.425 10.0017 124.929 10.1337L125.645 10.9915V9.20994L124.994 10.1337C126.295 10.0677 127.27 9.07797 127.27 7.82428C127.27 6.96648 126.88 6.30664 126.23 5.91074C126.035 5.77877 125.775 5.71279 125.515 5.58082C125.124 5.51484 124.734 5.44885 124.279 5.44885H117.582V15.0165Z" fill="black"/>
<path d="M131.238 10.599C131.238 12.1166 131.954 13.1724 133.319 13.1724C134.684 13.1724 135.4 12.1166 135.4 10.599V9.93914C135.4 8.4215 134.684 7.36576 133.319 7.36576C131.954 7.36576 131.238 8.4215 131.238 9.93914V10.599ZM133.384 15.2179C129.873 15.2179 128.052 13.2383 128.052 10.401V10.0711C128.052 7.36576 129.613 5.25427 133.384 5.25427C137.22 5.25427 138.716 7.36576 138.716 10.0711V10.401C138.716 13.2383 136.895 15.2179 133.384 15.2179Z" fill="black"/>
<path d="M145.346 15.0171H148.532V5.51538H145.346V15.0171ZM146.906 7.4949V5.51538H143.265H139.559V8.61663C139.559 10.9921 139.234 13.1695 137.999 14.6872V15.0171H141.51C142.095 14.2913 142.42 13.4994 142.55 12.5097C142.68 11.5859 142.68 10.4642 142.68 9.5404V7.4949H146.906Z" fill="black"/>
<path d="M156.401 13.5654V14.1593H157.051V13.6314H156.401V13.5654ZM149.313 10.8601C149.313 13.4335 150.874 15.281 153.475 15.281C154.775 15.281 155.751 14.9511 156.661 14.0933V15.0171H160.042V5.51538H156.661V10.5302C156.661 11.5859 156.401 12.3117 155.881 12.7076C155.555 12.9716 155.1 13.1695 154.58 13.1695C153.67 13.1695 153.15 12.7076 152.89 11.9818C152.76 11.6519 152.76 11.256 152.76 10.5961V5.51538H149.313V10.8601Z" fill="black"/>
<path d="M159.652 5.51538V7.4949H169.535V5.51538H159.652ZM162.968 5.51538V15.0171H166.349V5.51538H162.968Z" fill="black"/>
<path d="M172.137 9.07852V11.124H175.778V9.07852H172.137ZM169.211 5.51538V15.0171H172.397V5.51538H169.211ZM175.518 5.51538V15.0171H178.704V5.51538H175.518Z" fill="black"/>
<path d="M186.18 9.27794V7.56236H183.709C182.994 7.56236 182.668 7.89228 182.668 8.42015C182.668 8.94802 182.994 9.27794 183.709 9.27794H186.18V9.27794ZM179.092 15.0186V14.6226C179.352 14.3587 179.547 14.2927 179.547 13.5009V11.9173C179.547 11.0595 179.873 10.5316 180.653 10.2677V10.2017C179.873 9.80582 179.352 9.14598 179.352 8.02425C179.352 6.70457 180.003 5.84678 181.173 5.51686C181.498 5.45087 181.953 5.38489 182.603 5.38489H189.366V14.8866H186.18V11.4554H183.839C183.189 11.4554 182.929 11.9833 182.929 12.3792V13.6329C182.929 14.2927 182.798 14.7546 182.473 14.9526H179.092V15.0186Z" fill="black"/>
<path d="M63.9416 9.14453H62.9663V9.87036H63.9416V9.14453Z" fill="black"/>
</svg>
