<svg width="282" height="30" viewBox="0 0 282 30" fill="none" xmlns="http://www.w3.org/2000/svg">
<path d="M5.49658 10.7589V11.726H6.69149V10.7589H5.49658ZM12.3076 23.0893H18.7601L11.3516 11.8469L6.69149 14.3855L12.3076 23.0893ZM11.1127 5.80254L1.79236 14.7481L3.70422 19.7045L18.2821 5.80254H11.1127ZM0 23.2102H5.85506V0H0V23.2102Z" fill="black"/>
<path d="M25.9296 16.6786V17.6457H27.1245V16.6786H25.9296ZM15.2949 5.79883L23.1813 23.69C21.9864 24.778 21.389 24.778 18.8797 24.778V29.009H22.8229C26.4076 29.009 27.722 27.3166 28.6779 25.1406L37.2813 5.91971H30.5898L25.6906 18.8546L27.1245 19.0963L21.8669 5.79883H15.2949Z" fill="black"/>
<path d="M36.2061 23.2102H42.0611V5.80254H36.2061V23.2102ZM36.2061 0V4.59368H42.0611V0H36.2061Z" fill="black"/>
<path d="M51.4997 16.6786V17.6457H52.6946V16.6786H51.4997ZM41.104 5.79883L48.7514 23.2065H55.2039L62.9709 5.79883H56.2794L51.4997 18.371H52.6946L47.5565 5.79883H41.104Z" fill="black"/>
<path d="M75.9956 23.209H81.0142V19.3406H78.5049C77.788 19.3406 77.31 18.7362 77.31 18.0109V1.57031H71.2159V18.3735C71.2159 21.3957 73.2473 23.209 75.9956 23.209ZM67.5117 5.80133V9.42792H81.0142V5.80133H67.5117Z" fill="black"/>
<path d="M89.7382 16.6786V17.6457H90.9331V16.6786H89.7382ZM79.1035 5.79883L86.9899 23.69C85.795 24.778 85.1976 24.778 82.6882 24.778V29.009H86.6314C90.2162 29.009 91.5306 27.3166 92.4865 25.1406L101.09 5.91971H94.3983L89.4992 18.8546L90.9331 19.0963L85.6755 5.79883H79.1035Z" fill="black"/>
<path d="M105.272 20.1854V21.1525H106.467V20.1854H105.272ZM105.272 7.61325V8.58034H106.467V7.61325H105.272ZM110.29 19.3392C107.781 19.3392 105.869 17.405 105.869 14.6247V13.7785C105.869 10.9981 107.781 9.06388 110.29 9.06388C112.8 9.06388 114.114 10.9981 114.114 13.7785V14.6247C114.114 17.5259 112.8 19.3392 110.29 19.3392ZM100.014 29.0101H105.869V5.79995H100.014V29.0101ZM112.202 23.5702C117.699 23.5702 120.686 19.9437 120.686 14.7455V14.1411C120.686 9.18477 118.177 5.31641 112.202 5.31641C106.228 5.31641 103.838 9.18477 103.838 14.1411V14.7455C103.838 19.9437 106.586 23.5702 112.202 23.5702Z" fill="black"/>
<path d="M128.094 12.5733C128.452 10.1556 129.528 9.18847 131.798 9.18847C133.949 9.18847 135.144 10.0347 135.502 12.5733H128.094ZM121.761 15.1119C121.761 20.0682 124.868 23.574 131.559 23.574C137.295 23.574 140.043 21.1562 140.999 17.7714H135.144C134.785 18.7385 133.71 19.7056 131.798 19.7056C129.408 19.7056 128.333 18.255 127.974 16.1999H141.238C141.238 14.1448 141.238 12.4524 140.879 11.0018C139.923 7.25429 137.175 5.19922 131.559 5.19922C124.27 5.19922 121.761 8.9467 121.761 13.7822V15.1119Z" fill="black"/>
<path d="M149.363 10.2753H153.067V23.2102H158.922V10.2753H162.626V6.64875H158.922V5.19811C158.922 4.47279 159.52 3.98925 160.117 3.98925H162.507V0H158.205C155.098 0 153.067 2.53861 153.067 5.56077V6.64875H149.363V10.2753V10.2753Z" fill="black"/>
<path d="M168.362 15.1082C168.362 17.8886 169.676 19.8228 172.186 19.8228C174.695 19.8228 176.009 17.8886 176.009 15.1082V13.8993C176.009 11.119 174.695 9.18477 172.186 9.18477C169.676 9.18477 168.362 11.119 168.362 13.8993V15.1082ZM172.305 23.5702C165.853 23.5702 162.507 19.9437 162.507 14.7455V14.1411C162.507 9.18477 165.375 5.31641 172.305 5.31641C179.355 5.31641 182.103 9.18477 182.103 14.1411V14.7455C182.103 19.9437 178.758 23.5702 172.305 23.5702Z" fill="black"/>
<path d="M196.205 20.547V21.6349H197.4V20.6678H196.205V20.547ZM183.18 15.5906C183.18 20.3052 186.048 23.69 190.828 23.69C193.217 23.69 195.01 23.0856 196.683 21.514V23.2065H202.896V5.79883H196.683V14.9862C196.683 16.9204 196.205 18.2501 195.249 18.9754C194.651 19.459 193.815 19.8216 192.859 19.8216C191.186 19.8216 190.23 18.9754 189.752 17.6457C189.513 17.0413 189.513 16.3159 189.513 15.1071V5.79883H183.18V15.5906V15.5906Z" fill="black"/>
<path d="M211.379 8.45945V7.37147H210.185V8.33856H211.379V8.45945ZM224.404 13.4158C224.404 8.70122 221.536 5.31641 216.757 5.31641C214.367 5.31641 212.574 5.92084 210.902 7.49236V5.79995H204.688V23.2076H210.902V14.0202C210.902 12.086 211.379 10.7563 212.335 10.031C212.933 9.54743 213.769 9.18477 214.725 9.18477C216.398 9.18477 217.354 10.031 217.832 11.3607C218.071 11.9652 218.071 12.6905 218.071 13.8993V23.0867H224.404V13.4158V13.4158Z" fill="black"/>
<path d="M241.013 8.8247V7.73672H239.819V8.70382H241.013V8.8247ZM241.013 21.276V20.3089H239.819V21.276H241.013ZM235.995 9.67091C238.504 9.67091 240.416 11.6051 240.416 14.3855V15.2317C240.416 18.0121 238.504 19.9462 235.995 19.9462C233.486 19.9462 232.171 18.0121 232.171 15.2317V14.3855C232.171 11.4842 233.366 9.67091 235.995 9.67091ZM246.271 0H240.416V23.2102H246.271V0ZM234.083 5.319C228.586 5.319 225.599 8.94559 225.599 14.1437V14.7481C225.599 19.7045 228.108 23.5728 234.083 23.5728C240.058 23.5728 242.447 19.7045 242.447 14.7481V14.1437C242.447 9.06647 239.699 5.319 234.083 5.319Z" fill="black"/>
<path d="M247.943 23.2065H253.798V16.195C253.798 15.5906 253.798 14.8653 254.037 14.14C254.276 13.2938 254.635 12.6893 255.232 12.0849C256.069 11.2387 257.144 10.7552 258.936 10.7552C259.892 10.7552 260.848 10.9969 261.565 11.2387L261.685 11.1178V5.79883H260.131C257.503 5.79883 255.471 7.24946 254.037 9.30453H253.918V5.79883H248.063V23.2065H247.943Z" fill="black"/>
<path d="M270.648 16.6786V17.6457H271.843V16.6786H270.648ZM260.014 5.79883L267.9 23.69C266.705 24.778 266.108 24.778 263.598 24.778V29.009H267.542C271.126 29.009 272.441 27.3166 273.397 25.1406L282 5.91971H275.309L270.409 18.8546L271.843 19.0963L266.586 6.0406H260.014V5.79883Z" fill="black"/>
</svg>
