<svg width="350" height="30" viewBox="0 0 350 30" fill="none" xmlns="http://www.w3.org/2000/svg">
<rect width="350" height="30" fill="white"/>
<path d="M5.50607 23.5877H11.1866V16.5288H15.0123C16.1716 16.5288 16.6353 17.47 16.6353 18.1759V21.2347C16.6353 22.4112 16.8672 23.2347 17.4469 23.5877H23.7071V22.9994C23.2434 22.4112 22.7797 21.7053 22.7797 20.0582V17.3524C22.7797 15.7053 21.7363 14.2935 19.0699 14.6465L20.6929 16.1759V12.9994L19.5336 14.5288C21.3885 14.8818 22.4319 13.1171 22.4319 11.47V9.11707C22.4319 7.9406 22.6637 7.82295 23.0115 7.35237V6.64648H17.215C16.6353 6.88178 16.5194 7.58766 16.5194 8.41119V11.3524C16.5194 12.0582 15.9398 12.9994 14.8964 12.9994H11.0707V6.64648H5.39014V23.5877H5.50607Z" fill="black"/>
<path d="M36.4596 20.9994V22.0583H37.6189V21.1171H36.4596V20.9994ZM23.8232 16.1759C23.8232 20.7641 26.6056 24.0583 31.2428 24.0583C33.5614 24.0583 35.3003 23.47 36.9233 21.9406V23.5877H42.9517V6.64648H36.9233V15.5877C36.9233 17.47 36.4596 18.7641 35.5322 19.47C34.9525 19.9406 34.141 20.2935 33.2136 20.2935C31.5906 20.2935 30.6631 19.47 30.1994 18.1759C29.9675 17.5877 29.9675 16.8818 29.9675 15.7053V6.64648H23.8232V16.1759V16.1759Z" fill="black"/>
<path d="M46.0825 1H40.4019V5.47059H46.0825V1Z" fill="black"/>
<path d="M54.5458 1H48.8652V5.47059H54.5458V1Z" fill="black"/>
<path d="M50.2553 6.64648H44.5747V23.5877H50.2553V6.64648Z" fill="black"/>
<path d="M57.6752 13.1156V10.292H62.7762C63.7036 10.292 64.3992 10.8803 64.3992 11.7038C64.3992 12.5273 63.8195 13.1156 62.7762 13.1156H57.6752V13.1156ZM57.6752 19.8215V16.9979H62.7762C63.7036 16.9979 64.3992 17.5862 64.3992 18.4097C64.3992 19.2332 63.8195 19.8215 62.7762 19.8215H57.6752ZM51.9946 23.5862H64.2832C67.4133 23.5862 69.9638 21.9391 69.9638 18.8803C69.9638 16.1744 67.7611 14.645 65.0948 14.8803L66.37 16.4097V13.2332L65.2107 14.8803C67.5293 14.7626 69.2682 12.9979 69.2682 10.7626C69.2682 9.23323 68.5727 8.05676 67.4134 7.35087C67.0656 7.11558 66.6018 6.99793 66.1381 6.76264C65.4425 6.64499 64.747 6.52734 63.9355 6.52734H51.9946V23.5862Z" fill="black"/>
<path d="M83.9909 16.8836C83.7591 18.766 82.8316 20.2954 80.3971 20.2954C77.8466 20.2954 76.8033 18.5307 76.8033 15.9424V14.2954C76.8033 11.7071 77.8466 9.94244 80.3971 9.94244C82.5998 9.94244 83.4113 11.1189 83.875 12.8836H89.5556C88.9759 9.00126 86.6573 6.17773 80.2812 6.17773C73.2094 6.17773 70.7749 9.82479 70.7749 14.5307V15.7071C70.7749 20.5307 73.7891 23.9424 80.2812 23.9424C86.4255 23.9424 89.2078 21.0013 89.7874 16.766H83.9909V16.8836Z" fill="black"/>
<path d="M96.1635 19.7053H100.453C101.728 19.7053 102.308 19.1171 102.308 18.1759C102.308 17.2347 101.728 16.6465 100.453 16.6465H96.1635V19.7053ZM90.4829 23.5877V6.64648H96.1635V13.1171H102.772C103.931 13.1171 104.626 13.2347 105.322 13.3524C107.409 13.9406 108.568 15.5877 108.568 18.0583C108.568 20.9994 106.945 22.7641 104.51 23.3524C103.351 23.7053 102.076 23.5877 100.569 23.5877H90.4829Z" fill="black"/>
<path d="M109.611 23.5877H115.292V16.5288H119.117C120.277 16.5288 120.74 17.47 120.74 18.1759V21.2347C120.74 22.4112 120.972 23.2347 121.552 23.5877H127.812V22.9994C127.348 22.4112 126.885 21.7053 126.885 20.0582V17.3524C126.885 15.7053 125.841 14.2935 123.175 14.6465L124.798 16.1759V12.9994L123.639 14.5288C125.493 14.8818 126.537 13.1171 126.537 11.47V9.11707C126.537 7.9406 126.769 7.82295 127.117 7.35237V6.64648H121.32C120.74 6.88178 120.624 7.58766 120.624 8.41119V11.3524C120.624 12.0582 120.045 12.9994 119.001 12.9994H115.176V6.64648H109.495V23.5877H109.611Z" fill="black"/>
<path d="M129.088 12.2949H134.653C134.884 11.0008 135.812 9.94193 137.667 9.94193H138.478C139.869 9.94193 140.913 10.6478 140.913 11.8243C140.913 12.7655 140.333 13.1184 138.826 13.236L134.537 13.589C130.711 13.8243 128.276 15.1184 128.276 18.8831C128.276 22.4125 131.175 24.1772 134.421 24.1772C136.855 24.1772 139.522 23.1184 141.261 21.0008V21.589C141.261 22.6478 141.492 23.3537 142.072 23.7066H147.869V23.0008C146.593 22.5302 146.709 21.7066 146.709 20.4125V12.6478C146.709 9.00075 144.159 6.29487 138.362 6.29487C132.218 6.17722 129.552 8.76546 129.088 12.2949ZM134.189 18.1772C134.189 17.3537 134.768 16.8831 136.16 16.6478L138.246 16.4125C139.406 16.2949 140.333 15.9419 140.913 15.236V16.1772C140.913 17.9419 138.594 19.8243 136.044 19.8243C134.768 19.8243 134.189 19.236 134.189 18.1772Z" fill="black"/>
<path d="M168.853 16.8836C168.621 18.766 167.693 20.2954 165.259 20.2954C162.708 20.2954 161.665 18.5307 161.665 15.9424V14.2954C161.665 11.7071 162.708 9.94244 165.259 9.94244C167.462 9.94244 168.273 11.1189 168.737 12.8836H174.417C173.838 9.00126 171.519 6.17773 165.143 6.17773C158.071 6.17773 155.637 9.82479 155.637 14.5307V15.7071C155.637 20.5307 158.651 23.9424 165.143 23.9424C171.287 23.9424 174.07 21.0013 174.649 16.766H168.853V16.8836Z" fill="black"/>
<path d="M186.357 23.5877H192.038V6.64648H186.357V23.5877ZM189.14 10.1759V6.64648H182.648H176.04V12.1759C176.04 16.4112 175.46 20.2935 173.257 22.9994V23.5877H179.518C180.561 22.2935 181.141 20.8818 181.372 19.1171C181.604 17.47 181.604 15.47 181.604 13.823V10.1759H189.14Z" fill="black"/>
<path d="M198.878 15.7071C198.878 18.413 200.154 20.2954 202.588 20.2954C205.023 20.2954 206.298 18.413 206.298 15.7071V14.5307C206.298 11.8248 205.023 9.94244 202.588 9.94244C200.154 9.94244 198.878 11.8248 198.878 14.5307V15.7071ZM202.704 23.9424C196.444 23.9424 193.198 20.413 193.198 15.3542V14.766C193.198 9.94244 195.98 6.17773 202.704 6.17773C209.544 6.17773 212.21 9.94244 212.21 14.766V15.3542C212.21 20.413 208.964 23.9424 202.704 23.9424Z" fill="black"/>
<path d="M218.933 13.1156V10.292H224.034C224.962 10.292 225.657 10.8803 225.657 11.7038C225.657 12.5273 225.078 13.1156 224.034 13.1156H218.933V13.1156ZM218.933 19.8215V16.9979H224.034C224.962 16.9979 225.657 17.5862 225.657 18.4097C225.657 19.2332 225.078 19.8215 224.034 19.8215H218.933ZM213.253 23.5862H225.542C228.672 23.5862 231.222 21.9391 231.222 18.8803C231.222 16.1744 229.019 14.645 226.353 14.8803L227.628 16.4097V13.2332L226.469 14.8803C228.788 14.7626 230.527 12.9979 230.527 10.7626C230.527 9.23323 229.831 8.05676 228.672 7.35087C228.324 7.11558 227.86 6.99793 227.396 6.76264C226.701 6.64499 226.005 6.52734 225.194 6.52734H213.253V23.5862Z" fill="black"/>
<path d="M237.599 15.7071C237.599 18.413 238.874 20.2954 241.308 20.2954C243.743 20.2954 245.018 18.413 245.018 15.7071V14.5307C245.018 11.8248 243.743 9.94244 241.308 9.94244C238.874 9.94244 237.599 11.8248 237.599 14.5307V15.7071ZM241.424 23.9424C235.164 23.9424 231.918 20.413 231.918 15.3542V14.766C231.918 9.94244 234.7 6.17773 241.424 6.17773C248.264 6.17773 250.93 9.94244 250.93 14.766V15.3542C250.93 20.413 247.684 23.9424 241.424 23.9424Z" fill="black"/>
<path d="M262.756 23.5877H268.436V6.64648H262.756V23.5877ZM265.538 10.1759V6.64648H259.046H252.438V12.1759C252.438 16.4112 251.858 20.2935 249.656 22.9994V23.5877H255.916C256.959 22.2935 257.539 20.8818 257.771 19.1171C258.003 17.47 258.003 15.47 258.003 13.823V10.1759H265.538Z" fill="black"/>
<path d="M282.464 20.9994V22.0583H283.623V21.1171H282.464V20.9994ZM269.828 16.1759C269.828 20.7641 272.61 24.0583 277.247 24.0583C279.566 24.0583 281.305 23.47 282.928 21.9406V23.5877H288.956V6.64648H282.928V15.5877C282.928 17.47 282.464 18.7641 281.537 19.47C280.957 19.9406 280.145 20.2935 279.218 20.2935C277.595 20.2935 276.668 19.47 276.204 18.1759C275.972 17.5877 275.972 16.8818 275.972 15.7053V6.64648H269.828V16.1759Z" fill="black"/>
<path d="M288.261 6.64648V10.1759H305.882V6.64648H288.261ZM294.173 6.64648V23.5877H300.202V6.64648H294.173Z" fill="black"/>
<path d="M310.52 12.9994V16.6465H317.012V12.9994H310.52ZM305.303 6.64648V23.5877H310.983V6.64648H305.303ZM316.548 6.64648V23.5877H322.229V6.64648H316.548Z" fill="black"/>
<path d="M335.56 13.3533V10.2945H331.154C329.879 10.2945 329.3 10.8827 329.3 11.8239C329.3 12.7651 329.879 13.3533 331.154 13.3533H335.56V13.3533ZM322.923 23.5886V22.8827C323.387 22.4121 323.735 22.2945 323.735 20.8827V18.0592C323.735 16.5298 324.315 15.5886 325.706 15.118V15.0003C324.315 14.2945 323.387 13.118 323.387 11.118C323.387 8.76505 324.546 7.23564 326.633 6.6474C327.213 6.52976 328.024 6.41211 329.184 6.41211H341.24V23.3533H335.56V17.2356H331.386C330.227 17.2356 329.763 18.1768 329.763 18.8827V21.118C329.763 22.2945 329.531 23.118 328.952 23.4709H322.923V23.5886Z" fill="black"/>
<path d="M117.611 13.1152H115.872V14.4094H117.611V13.1152Z" fill="black"/>
</svg>
