<svg width="286" height="30" viewBox="0 0 286 30" fill="none" xmlns="http://www.w3.org/2000/svg">
<rect width="286" height="30" fill="white"/>
<path d="M10.7234 11.4706V12.4118H11.8827V11.4706H10.7234ZM17.3314 23.4706H23.5917L16.404 12.5294L11.8827 15L17.3314 23.4706ZM16.1721 6.64706L7.12958 15.3529L8.98446 20.1765L23.1279 6.64706H16.1721ZM5.39062 23.5882H11.0712V1H5.39062V23.5882Z" fill="black"/>
<path d="M30.5483 17.2347V18.1759H31.7076V17.2347H30.5483ZM20.2305 6.64648L27.8819 24.0582C26.7226 25.1171 26.1429 25.1171 23.7084 25.1171V29.2347H27.5341C31.012 29.2347 32.2872 27.5877 33.2146 25.47L41.5616 6.76413H35.0695L30.3164 19.3524L31.7076 19.5877L26.6066 6.64648H20.2305Z" fill="black"/>
<path d="M40.5176 23.5882H46.1982V6.64706H40.5176V23.5882ZM40.5176 1V5.47059H46.1982V1H40.5176Z" fill="black"/>
<path d="M55.3574 17.2347V18.1759H56.5167V17.2347H55.3574ZM45.2715 6.64648L52.691 23.5877H58.9512L66.4867 6.64648H59.9946L55.3574 18.8818H56.5167L51.5317 6.64648H45.2715Z" fill="black"/>
<path d="M79.1222 23.5881H83.9912V19.8234H81.5567C80.8611 19.8234 80.3974 19.2352 80.3974 18.5293V2.5293H74.4849V18.8822C74.4849 21.8234 76.4558 23.5881 79.1222 23.5881ZM70.8911 6.64694V10.1764H83.9912V6.64694H70.8911Z" fill="black"/>
<path d="M92.4545 17.2347V18.1759H93.6138V17.2347H92.4545ZM82.1367 6.64648L89.7881 24.0582C88.6288 25.1171 88.0492 25.1171 85.6146 25.1171V29.2347H89.4403C92.9182 29.2347 94.1935 27.5877 95.1209 25.47L103.468 6.76413H96.9758L92.2226 19.3524L93.6138 19.5877L88.5129 6.64648H82.1367Z" fill="black"/>
<path d="M107.526 20.6483V21.5895H108.685V20.6483H107.526ZM107.526 8.41303V9.3542H108.685V8.41303H107.526ZM112.395 19.8248C109.96 19.8248 108.105 17.9424 108.105 15.2366V14.413C108.105 11.7071 109.96 9.82479 112.395 9.82479C114.829 9.82479 116.105 11.7071 116.105 14.413V15.2366C116.105 18.0601 114.829 19.8248 112.395 19.8248ZM102.425 29.2366H108.105V6.64832H102.425V29.2366ZM114.25 23.9424C119.582 23.9424 122.481 20.413 122.481 15.3542V14.766C122.481 9.94244 120.046 6.17773 114.25 6.17773C108.453 6.17773 106.135 9.94244 106.135 14.766V15.3542C106.135 20.413 108.801 23.9424 114.25 23.9424Z" fill="black"/>
<path d="M129.669 13.237C130.017 10.8841 131.06 9.9429 133.263 9.9429C135.349 9.9429 136.509 10.7664 136.856 13.237H129.669ZM123.524 15.7076C123.524 20.5311 126.539 23.9429 133.031 23.9429C138.595 23.9429 141.262 21.59 142.189 18.2958H136.509C136.161 19.237 135.117 20.1782 133.263 20.1782C130.944 20.1782 129.901 18.7664 129.553 16.7664H142.421C142.421 14.7664 142.421 13.1194 142.073 11.7076C141.146 8.06055 138.479 6.06055 133.031 6.06055C125.959 6.06055 123.524 9.70761 123.524 14.4135V15.7076Z" fill="black"/>
<path d="M150.304 11H153.898V23.5882H159.578V11H163.172V7.47059H159.578V6.05882C159.578 5.35294 160.158 4.88235 160.737 4.88235H163.056V1H158.883C155.868 1 153.898 3.47059 153.898 6.41176V7.47059H150.304V11V11Z" fill="black"/>
<path d="M168.737 15.7071C168.737 18.413 170.012 20.2954 172.447 20.2954C174.881 20.2954 176.156 18.413 176.156 15.7071V14.5307C176.156 11.8248 174.881 9.94244 172.447 9.94244C170.012 9.94244 168.737 11.8248 168.737 14.5307V15.7071ZM172.562 23.9424C166.302 23.9424 163.056 20.413 163.056 15.3542V14.766C163.056 9.94244 165.838 6.17773 172.562 6.17773C179.402 6.17773 182.069 9.94244 182.069 14.766V15.3542C182.069 20.413 178.823 23.9424 172.562 23.9424Z" fill="black"/>
<path d="M195.748 20.9994V22.0583H196.907V21.1171H195.748V20.9994ZM183.112 16.1759C183.112 20.7641 185.894 24.0583 190.531 24.0583C192.85 24.0583 194.589 23.47 196.212 21.9406V23.5877H202.24V6.64648H196.212V15.5877C196.212 17.47 195.748 18.7641 194.821 19.47C194.241 19.9406 193.43 20.2935 192.502 20.2935C190.879 20.2935 189.952 19.47 189.488 18.1759C189.256 17.5877 189.256 16.8818 189.256 15.7053V6.64648H183.112V16.1759V16.1759Z" fill="black"/>
<path d="M210.472 9.23656V8.17773H209.313V9.11891H210.472V9.23656ZM223.108 14.0601C223.108 9.47185 220.326 6.17773 215.689 6.17773C213.37 6.17773 211.631 6.76597 210.008 8.29538V6.64832H203.98V23.5895H210.008V14.6483C210.008 12.766 210.472 11.4719 211.4 10.766C211.979 10.2954 212.791 9.94244 213.718 9.94244C215.341 9.94244 216.269 10.766 216.732 12.0601C216.964 12.6483 216.964 13.3542 216.964 14.5307V23.4719H223.108V14.0601V14.0601Z" fill="black"/>
<path d="M239.223 9.58824V8.52941H238.063V9.47059H239.223V9.58824ZM239.223 21.7059V20.7647H238.063V21.7059H239.223ZM234.353 10.4118C236.788 10.4118 238.643 12.2941 238.643 15V15.8235C238.643 18.5294 236.788 20.4118 234.353 20.4118C231.919 20.4118 230.644 18.5294 230.644 15.8235V15C230.644 12.1765 231.803 10.4118 234.353 10.4118ZM244.323 1H238.643V23.5882H244.323V1ZM232.499 6.17647C227.166 6.17647 224.268 9.70588 224.268 14.7647V15.3529C224.268 20.1765 226.702 23.9412 232.499 23.9412C238.295 23.9412 240.614 20.1765 240.614 15.3529V14.7647C240.614 9.82353 237.947 6.17647 232.499 6.17647Z" fill="black"/>
<path d="M245.946 23.5877H251.627V16.7641C251.627 16.1759 251.627 15.47 251.859 14.7641C252.091 13.9406 252.438 13.3524 253.018 12.7641C253.83 11.9406 254.873 11.47 256.612 11.47C257.539 11.47 258.467 11.7053 259.162 11.9406L259.278 11.823V6.64648H257.771C255.221 6.64648 253.25 8.05825 251.859 10.0582H251.743V6.64648H246.062V23.5877H245.946Z" fill="black"/>
<path d="M267.973 17.2347V18.1759H269.132V17.2347H267.973ZM257.655 6.64648L265.306 24.0582C264.147 25.1171 263.567 25.1171 261.133 25.1171V29.2347H264.958C268.436 29.2347 269.712 27.5877 270.639 25.47L278.986 6.76413H272.494L267.741 19.3524L269.132 19.5877L264.031 6.88178H257.655V6.64648Z" fill="black"/>
</svg>
